<?xml version="1.0" encoding="UTF-8"?>
<svg width="889px" height="800px" viewBox="0 0 889 800" version="1.1" xmlns="http://www.w3.org/2000/svg" xmlns:xlink="http://www.w3.org/1999/xlink">
    <title>404-page</title>
    <g id="Page-1" stroke="none" stroke-width="1" fill="none" fill-rule="evenodd">
        <g id="404-page" transform="translate(0.000000, 0.900000)" fill-rule="nonzero">
            <path d="M650.6,94.1 C651,92.9 652.1,92 653.4,92 C653.4,92 653.4,92 653.4,92 C654.6,92 655.5,93 655.5,94.1 C655.5,94.5 655.5,94.8 655.5,94.8 C655.5,94.8 655.5,94.8 655.5,94.8 C655.5,96.2 654.4,97.3 653,97.4 L652.6,97.4 C652.5,97.4 652.4,97.4 652.3,97.4 C651.1,97.2 650.2,96.1 650.4,94.9 C650.3,94.9 650.4,94.6 650.6,94.1 Z M660.6,142.1 C661,140.9 662.1,140 663.4,140 C663.4,140 663.4,140 663.4,140 C664.6,140 665.5,141 665.5,142.1 C665.5,142.5 665.5,142.8 665.5,142.8 C665.5,142.8 665.5,142.8 665.5,142.8 C665.5,144.2 664.4,145.3 663,145.4 L662.6,145.4 C662.5,145.4 662.4,145.4 662.3,145.4 C661.1,145.2 660.2,144.1 660.4,142.9 C660.3,142.9 660.4,142.6 660.6,142.1 Z M363.6,107.2 C363.8,107.6 363.9,107.9 363.9,108 C364.2,109.2 363.5,110.5 362.3,110.8 C362.2,110.8 362.1,110.8 362,110.9 L361.6,110.9 C360.2,111.1 359,110.1 358.8,108.7 C358.8,108.6 358.8,108.4 358.7,108 C358.6,106.8 359.4,105.7 360.6,105.6 C361.9,105.2 363.1,106 363.6,107.2 Z M360.4,150.5 C360.6,151 360.7,151.3 360.8,151.4 C361.2,152.8 360.3,154.2 358.9,154.6 C358.8,154.6 358.7,154.7 358.5,154.7 L358,154.8 C356.4,155 355,153.8 354.8,152.2 C354.8,152.1 354.8,151.8 354.7,151.4 C354.5,150 355.5,148.8 356.9,148.6 C358.4,148.3 359.8,149.1 360.4,150.5 Z M462.6,4.3 C463.2,2.1 465.2,0.7 467.5,0.7 C469.6,0.7 471.2,2.4 471.2,4.4 C471.2,5.1 471.2,5.5 471.2,5.7 C471.2,8.1 469.3,10.1 466.9,10.1 L466.2,10.1 C466,10.1 465.8,10.1 465.6,10.1 C463.5,9.8 461.9,7.9 462.2,5.7 C462.3,5.5 462.4,5 462.6,4.3 Z" id="Shape" fill="#DBECFF"></path>
            <path d="M413.3,392 C415.6,410.1 417.4,420.4 418.8,423 C420.8,426.9 431.3,430.5 433.3,430.5 C434.6,430.5 484,434.7 581.3,443 C588.6,443 595,440.8 600.3,436.5 C602.4,434.8 602.2,432.3 603.3,428.5 C604.3,424.8 605.3,417 606.3,405 L581.3,392 L413.3,392 Z" id="Path" fill="#FFFFFF"></path>
            <path d="M360.9,104.9 C359.3,105.1 358.2,106.6 358.4,108.2 C358.4,108.6 358.5,108.8 358.5,108.9 C358.7,110.7 360.3,112 362.1,111.8 L362.5,111.8 C362.6,111.8 362.8,111.8 362.9,111.7 C364.5,111.3 365.5,109.6 365.1,108 C365.1,107.9 365,107.6 364.8,107.1 C364,105.6 362.5,104.7 360.9,104.9 Z M363.3,107.7 C363.5,108.1 363.6,108.3 363.6,108.3 C363.8,109.1 363.3,109.9 362.5,110.2 C362.4,110.2 362.4,110.2 362.3,110.2 L361.9,110.2 C360.9,110.3 360,109.6 359.9,108.6 C359.9,108.5 359.9,108.3 359.8,107.9 C359.7,107.1 360.3,106.4 361,106.3 C362,106.3 362.9,106.8 363.3,107.7 Z M357.2,148 C355.4,148.2 354.2,149.8 354.4,151.6 C354.5,152.1 354.5,152.3 354.5,152.4 C354.7,154.4 356.5,155.8 358.5,155.6 L359,155.5 C359.2,155.5 359.3,155.5 359.5,155.4 C361.3,154.9 362.4,153.1 361.9,151.3 C361.9,151.1 361.7,150.9 361.5,150.3 C360.8,148.8 359,147.8 357.2,148 Z M360.1,151.1 C360.3,151.5 360.4,151.8 360.4,151.9 C360.7,152.9 360.1,153.9 359.1,154.1 C359,154.1 358.9,154.1 358.8,154.1 L358.3,154.2 C357.1,154.3 356.1,153.5 355.9,152.3 C355.9,152.2 355.9,151.9 355.8,151.5 C355.7,150.5 356.4,149.7 357.3,149.6 C358.6,149.4 359.7,150 360.1,151.1 Z M653.4,90.9 C651.8,90.9 650.3,92 649.9,93.5 C649.7,94 649.7,94.3 649.7,94.4 C649.5,96 650.6,97.6 652.3,97.8 C652.4,97.8 652.6,97.8 652.7,97.8 L653.1,97.8 C654.9,97.8 656.3,96.3 656.3,94.5 L656.3,94.5 C656.3,94.4 656.3,94.2 656.3,93.8 C656.3,92.2 655,90.9 653.4,90.9 C653.4,90.9 653.4,90.9 653.4,90.9 Z M651.1,94.7 C651.1,94.7 651.2,94.4 651.3,94 C651.6,93.1 652.4,92.4 653.4,92.4 C653.4,92.4 653.4,92.4 653.4,92.4 C654.2,92.4 654.8,93 654.8,93.8 C654.8,94.2 654.8,94.5 654.8,94.6 L654.8,94.6 C654.8,95.6 654,96.4 653,96.4 L652.6,96.4 C652.5,96.4 652.4,96.4 652.4,96.4 C651.6,96.3 651,95.5 651.1,94.7 Z M663.4,138.9 C661.8,138.9 660.3,140 659.9,141.5 C659.7,142 659.7,142.3 659.7,142.4 C659.5,144 660.6,145.6 662.3,145.8 C662.4,145.8 662.6,145.8 662.7,145.8 L663.1,145.8 C664.9,145.8 666.3,144.3 666.3,142.5 L666.3,142.5 C666.3,142.4 666.3,142.2 666.3,141.8 C666.3,140.2 665,138.9 663.4,138.9 C663.4,138.9 663.4,138.9 663.4,138.9 Z M661.1,142.7 C661.1,142.7 661.2,142.4 661.3,142 C661.6,141.1 662.4,140.4 663.4,140.4 C663.4,140.4 663.4,140.4 663.4,140.4 C664.2,140.4 664.8,141 664.8,141.8 C664.8,142.2 664.8,142.5 664.8,142.6 L664.8,142.6 C664.8,143.6 664,144.4 663,144.4 L662.6,144.4 C662.5,144.4 662.4,144.4 662.4,144.4 C661.6,144.3 661,143.5 661.1,142.7 Z M461.5,5.7 C461.2,8.3 463,10.6 465.5,10.9 C465.7,10.9 465.9,10.9 466.2,10.9 L466.9,10.9 C469.7,10.9 472,8.6 472,5.7 C472,5.6 472,5.2 472,4.5 C472,2 470,5.68434189e-14 467.5,5.68434189e-14 C464.9,5.68434189e-14 462.6,1.7 461.9,4.2 C461.6,5.1 461.5,5.5 461.5,5.7 Z M467.5,1.6 C469.2,1.6 470.5,2.9 470.5,4.6 C470.5,5.3 470.5,5.7 470.5,5.9 C470.5,7.9 468.9,9.5 466.9,9.6 L466.2,9.6 C466,9.6 465.9,9.6 465.7,9.6 C464,9.4 462.7,7.8 463,6 C463,5.9 463.1,5.5 463.3,4.8 C463.9,2.8 465.6,1.6 467.5,1.6 Z" id="Shape" fill="#495EB8"></path>
            <polygon id="Path" fill="#495EB8" points="417.5 139.3 411.2 152.6 361.1 151.1 361.1 152.6 412.2 154.1 419.3 139.3 449.1 138.6 449.1 137.1 418.5 137.8 413.3 117.4 364.1 108.3 363.8 109.8 412 118.7 417.3 139.4"></polygon>
            <polygon id="Path" fill="#495EB8" points="525.8 203.5 598.3 189.5 565.8 277 537.8 277"></polygon>
            <path d="M435.3,292.5 L319.5,265 C303.5,261.2 286.7,264.6 273.4,274.3 L193,333.3 C179.9,342.9 171.6,357.8 170.3,374 L159.3,512.4 L185.3,512.4 L200.6,383.8 C202,372 208.1,361.3 217.5,354.1 L290.6,297.9 C296.8,293.1 304.7,291.2 312.4,292.5 L432.3,312.9 L435.3,292.5 Z" id="Path" fill="#FFFFFF"></path>
            <path d="M436.1,292 L319.6,264.3 C303.4,260.5 286.3,263.9 272.9,273.8 L192.5,332.8 C179.2,342.6 170.8,357.6 169.5,374.1 L158.5,513.3 L186,513.3 L201.4,384 C202.8,372.4 208.8,361.9 218,354.8 L291.1,298.6 C297.1,294 304.8,292.1 312.3,293.3 L433,313.9 L436.1,292 Z M431.7,312.2 L312.5,291.9 C304.6,290.6 296.5,292.6 290.1,297.5 L217,353.7 C207.5,361 201.3,371.9 199.8,383.9 L184.6,511.9 L160.1,511.9 L171,374.2 C172.3,358.2 180.4,343.5 193.4,334 L273.8,275 C286.9,265.4 303.5,262 319.3,265.8 L434.5,293.1 L431.7,312.2 Z" id="Shape" fill="#495EB8"></path>
            <path d="M432.9,429.8 L425.3,399.6 L567.8,409.1 L569.4,413.3 L581.3,442.3 C589.9,441.9 595.7,440.5 598.8,438 C601.6,435.8 603.7,427.5 605.1,413.2 L583.3,396.8 L594.3,279.1 L617.8,321.1 L607,408 C607,408 607,408.1 607,408.1 C605.6,426 603.3,436.3 599.7,439.1 C596.3,441.9 590.1,443.4 581.1,443.7 L581.2,444 L433.2,431.5 L433.1,431.2 C424.1,430.9 416.6,424.1 415.4,415.2 L412.4,392.7 L413.9,392.5 L416.9,415 C418.1,423.1 424.8,429.3 432.9,429.8 Z" id="Path" fill="#495EB8"></path>
            <path d="M407.3,154.4 L412.5,180.3 C417.4,204.6 441,220.4 465.4,215.6 L597.8,189.3 L583.1,127.1 C572.8,83.4 530.8,54.6 486.3,60.8 C480.4,61.6 474.1,62.7 467.3,64.1 C425.9,72.6 399,112.9 407.3,154.4 Z" id="Path" fill="#FFFFFF"></path>
            <g id="Group" transform="translate(389.500000, 115.127052)">
                <path d="M16.8,85.8729478 L121.7,68.3729478 C131.9,66.6729478 139.2,57.3729478 138.3,47.0729478 L136.3,21.4729478 C135.3,9.37294785 124.7,0.372947847 112.6,1.27294785 C111.8,1.37294785 110.9,1.47294785 110.1,1.67294785 L0.8,23.3729478 L16.8,85.8729478 Z" id="Path" fill="#DBECFF"></path>
                <path d="M16.2,86.2729478 L121.8,68.6729478 C132.4,66.8729478 139.9,57.2729478 139.1,46.5729478 L137.1,20.9729478 C136.1,8.47294785 125.1,-0.927052153 112.6,0.0729478467 C111.7,0.172947847 110.9,0.272947847 110,0.472947847 L0,22.2729478 L16.2,86.2729478 Z M1.7,23.4729478 L110.2,1.97294785 C111,1.77294785 111.8,1.67294785 112.6,1.67294785 C124.3,0.772947847 134.5,9.47294785 135.5,21.1729478 L137.5,46.7729478 C138.3,56.7729478 131.3,65.6729478 121.5,67.2729478 L17.3,84.6729478 L1.7,23.4729478 Z" id="Shape" fill="#495EB8"></path>
            </g>
            <path d="M468.5,38.4 L468.3,10 C468.3,9.6 468,9.2 467.5,9.2 C467,9.2 466.7,9.5 466.7,10 L467,39.1 C467,39.5 467.3,39.9 467.8,39.9 L488,39.9 L476.6,61.8 C476.4,62.2 476.6,62.6 476.9,62.8 C477.3,63 477.7,62.8 477.9,62.5 L489.9,39.5 C490.2,39 489.8,38.4 489.2,38.4 L468.5,38.4 L468.5,38.4 Z" id="Path" fill="#495EB8"></path>
            <path d="M406.6,154.6 L411.8,180.5 C416.7,205.2 440.8,221.3 465.6,216.4 L598,190.1 C598.4,190 598.7,189.6 598.6,189.2 L583.9,127 C573.5,82.9 531.2,53.9 486.3,60.2 C480.4,61 474,62.1 467.3,63.5 C425.3,71.9 398.2,112.7 406.6,154.6 Z M465.2,214.9 C441.3,219.6 418,204.1 413.2,180.2 L408,154.3 C399.8,113.2 426.4,73.3 467.4,65 C474.1,63.6 480.5,62.5 486.3,61.7 C530.4,55.6 572,84 582.3,127.4 L596.8,188.9 L465.2,214.9 Z" id="Shape" fill="#495EB8"></path>
            <path d="M428,276.8 L411.6,383.3 C410.4,390.9 415.7,398.1 423.3,399.3 C423.7,399.4 424.1,399.4 424.5,399.4 L568,409.2 C575.2,409.7 581.6,404.6 582.8,397.5 L599.9,292.2 C601.1,284.6 596,277.4 588.3,276.1 C587.9,276 587.5,276 587.1,276 L442.9,265.1 C435.6,264.5 429.1,269.6 428,276.8 Z" id="Path" fill="#FFFFFF"></path>
            <path d="M427.3,276.7 L410.9,383.2 C409.7,391.3 415.2,398.8 423.2,400 C423.6,400.1 424,400.1 424.4,400.1 L567.9,409.9 C575.5,410.4 582.2,405.1 583.5,397.5 L600.6,292.2 C601.9,284.2 596.4,276.6 588.4,275.3 C588,275.2 587.6,275.2 587.2,275.2 L443,264.3 C435.3,263.7 428.5,269.1 427.3,276.7 Z M428.8,277 C429.9,270.2 436,265.3 442.9,265.8 L587.1,276.7 C587.5,276.7 587.9,276.8 588.2,276.8 C595.4,278 600.3,284.8 599.2,292 L582,397.3 C580.9,404.1 574.8,408.9 568,408.4 L424.5,398.6 C424.1,398.6 423.8,398.5 423.4,398.5 C416.2,397.4 411.2,390.6 412.3,383.4 L428.8,277 Z" id="Shape" fill="#495EB8"></path>
            <path d="M153.2,511.3 C152.7,520 159.4,527.4 168.1,527.9 C168.4,527.9 168.6,527.9 168.9,527.9 L177.5,527.9 C186.3,527.9 193.5,520.8 193.5,512 C193.5,512 193.5,512 193.5,511.9 C193.5,503 186.4,495.7 177.5,495.4 L170.7,495.2 C161.4,494.9 153.6,502.1 153.2,511.3 Z" id="Path" fill="#FFFFFF"></path>
            <polyline id="Path" fill="#FFFFFF" points="342.9 699.8 416.3 664.3 323.5 599 251.3 628.3"></polyline>
            <path d="M152.7,511.7 C152.2,520.8 159.2,528.6 168.3,529.1 C168.6,529.1 168.8,529.1 169.1,529.1 L177.7,529.1 C186.9,529.1 194.4,521.7 194.5,512.4 L194.5,512.3 C194.5,503 187.1,495.3 177.7,495.1 L170.9,494.9 C161.2,494.7 153.2,502.1 152.7,511.7 Z M154.2,511.8 C154.7,503 162,496.2 170.8,496.5 L177.6,496.7 C186.1,496.9 192.9,503.9 192.9,512.4 L192.9,512.5 C192.9,520.9 186,527.7 177.7,527.7 L169.1,527.7 C168.9,527.7 168.6,527.7 168.4,527.7 C160.1,527.2 153.7,520.1 154.2,511.8 Z" id="Shape" fill="#495EB8"></path>
            <path d="M148.3,699.8 L69.8,734 C24,684.7 1.1,659.3 1.29870128,658 C1.5,656.7 28.5,646.7 82.3,628 L148.3,699.8 Z" id="Path" fill="#FFFFFF"></path>
            <polygon id="Path" fill="#FFFFFF" points="156.3 798.2 333.3 797 343.3 700 148.3 700 107.8 717.5 112.8 758"></polygon>
            <polygon id="Path" fill="#DBECFF" points="220.3 700 220.3 758 251.3 739 280.3 758 280.3 700 220.3 700"></polygon>
            <path d="M155.6,798.2 L112.1,758.4 L106.7,718.6 L69.7,734.7 L0,657.5 L82.5,627.7 L148.8,699.1 L342.7,699.1 L414.8,664.2 L323.4,599.9 L251.8,629.6 L251.2,628.2 L323.6,598.2 L417.8,664.5 L344,700.1 L334,797.5 L155.6,798.7 L155.6,798.2 Z M155.4,796 L147.6,700.8 L108.1,718 L113.5,757.7 L155.4,796 Z M149.1,700.6 L157,797.3 L332.6,796.1 L342.4,700.6 L149.1,700.6 Z M82.1,629.4 L2.6,658.1 L70,732.9 L147,699.3 L82.1,629.4 Z" id="Shape" fill="#495EB8"></path>
            <path d="M279.9,758.7 C280.4,759 281.1,758.7 281.1,758.1 L281.1,700.1 C281.1,699.7 280.8,699.3 280.3,699.3 L220.3,699.3 C219.9,699.3 219.5,699.6 219.5,700.1 L219.5,758.1 C219.5,758.7 220.1,759 220.6,758.7 L251.2,739.9 L279.9,758.7 Z M279.6,700.8 L279.6,756.7 L251.8,738.5 C251.6,738.3 251.2,738.3 251,738.5 L221.1,756.8 L221.1,700.9 L279.6,700.9 L279.6,700.8 Z" id="Shape" fill="#495EB8"></path>
            <path d="M422,155.5 C421.5,153.1 423.1,150.7 425.6,150.2 C428,149.7 430.4,151.3 430.9,153.8 L433.6,167.5 C434.1,169.9 432.5,172.3 430,172.8 C427.6,173.3 425.2,171.7 424.7,169.2 L422,155.5 Z" id="Path" fill="#FFFFFF"></path>
            <path d="M492.5,146.7 C492.2,144 494.1,141.5 496.9,141.1 C499.6,140.8 502.1,142.7 502.5,145.5 L504.2,159.4 C504.5,162.1 502.6,164.6 499.8,165 C497.1,165.3 494.6,163.4 494.2,160.6 L492.5,146.7 Z" id="Path" fill="#FFFFFF"></path>
            <path d="M497.3,141.1 L496.3,141.2 C493.8,141.5 492.1,143.7 492.4,146.2 L494.2,161.1 C494.5,163.6 496.7,165.3 499.2,165 L500.2,164.9 C502.7,164.6 504.4,162.4 504.1,159.9 L502.3,145 C502,142.5 499.8,140.8 497.3,141.1 Z M497.5,142.6 C499.1,142.4 500.6,143.6 500.8,145.2 L502.6,160.1 C502.8,161.7 501.6,163.2 500,163.4 L499,163.5 C497.4,163.7 495.9,162.5 495.7,160.9 L493.9,146 C493.7,144.4 494.9,142.9 496.5,142.7 L497.5,142.6 Z M497.1,143.1 C495.5,143.3 494.3,144.8 494.5,146.4 L496.2,160.3 C496.4,161.9 497.9,163.1 499.5,162.9 C501.1,162.7 502.3,161.2 502.1,159.6 L500.4,145.7 C500.2,144.1 498.7,142.9 497.1,143.1 Z M503.9,141.2 C504.3,141.2 504.7,140.9 504.7,140.5 C504.7,140.1 504.4,139.7 504,139.7 L490.1,138.2 C489.7,138.2 489.3,138.5 489.3,138.9 C489.3,139.3 489.6,139.7 490,139.7 L503.9,141.2 Z M419.6,151.7 L432.6,146.7 C433,146.6 433.2,146.1 433,145.7 C432.9,145.3 432.4,145.1 432,145.3 L419,150.3 C418.6,150.4 418.4,150.9 418.6,151.3 C418.8,151.7 419.2,151.9 419.6,151.7 Z M459.1,171.5 C461.1,169.1 463.6,167.7 466.7,167.4 C471.9,166.9 473,167 477,168.7 C477.4,168.9 477.8,168.7 478,168.3 C478.2,167.9 478,167.5 477.6,167.3 C473.4,165.5 471.9,165.3 466.5,165.9 C463,166.3 460.1,167.8 457.9,170.5 C457.6,170.8 457.7,171.3 458,171.6 C458.4,171.9 458.9,171.8 459.1,171.5 Z M426.2,149.7 L425.2,149.9 C422.7,150.3 421.1,152.6 421.5,155 L423.8,169.8 C424.2,172.3 426.5,173.9 428.9,173.5 L429.9,173.3 C432.4,172.9 434,170.6 433.6,168.2 L431.3,153.4 C431,150.9 428.7,149.3 426.2,149.7 Z M426.4,151.1 C428,150.8 429.6,152 429.8,153.6 L432.1,168.4 C432.4,170 431.2,171.6 429.6,171.8 L428.6,172 C427,172.3 425.4,171.1 425.2,169.5 L422.9,154.7 C422.6,153.1 423.8,151.5 425.4,151.3 L426.4,151.1 Z M426,151.7 C424.4,152 423.2,153.5 423.5,155.1 L425.7,168.9 C426,170.5 427.5,171.7 429.1,171.4 C430.7,171.1 431.9,169.6 431.6,168 L429.4,154.2 C429.2,152.6 427.7,151.5 426,151.7 Z" id="Shape" fill="#495EB8"></path>
            <path d="M342.3,699.8 L148.3,699.8 L82.3,628.3 L251.3,628.3 L342.3,699.8 Z M133.4,745.5 C129.9,746.5 125.5,741.7 123.6,734.8 C121.6,727.9 122.8,721.5 126.3,720.5 C129.8,719.5 134.2,724.3 136.1,731.2 C138,738.1 136.8,744.5 133.4,745.5 Z" id="Shape" fill="#495EB8"></path>
            <path d="M526.8,433.5 L554,590 L544.8,765.5 L517,790.5 C515.4,792 515.2,794.5 516.7,796.2 C517.5,797 518.5,797.5 519.7,797.5 L607.3,797.5 C594.8,703.4 584.7,633.3 577,587 C569.5,542.3 559.3,490.1 546.4,430.3 C545.6,426.6 542.4,424 538.6,424 C537.7,424 536.9,424 536,424 C535.3,424 534.6,424 533.8,424.1 C529.4,424.6 526.3,428.5 526.7,432.9 C526.8,433.2 526.8,433.3 526.8,433.5 Z" id="Path" fill="#FFFFFF"></path>
            <path d="M543.8,765.2 L516.3,790 C514.4,791.8 514.2,794.8 516,796.7 C516.9,797.7 518.2,798.3 519.5,798.3 L607.1,798.3 C607.6,798.3 607.9,797.9 607.9,797.5 C595.4,703.4 585.3,633.2 577.6,587 C570.1,542.3 559.9,490.1 547,430.3 C546.1,426.3 542.6,423.4 538.5,423.4 L535.9,423.4 C535.2,423.4 534.4,423.4 533.6,423.5 C528.8,424 525.3,428.4 525.9,433.2 C525.9,433.4 525.9,433.6 526,433.7 L553.2,590.2 L543.8,765.2 Z M543.8,765.5 L544,765 L543.8,765.2 L543.8,765.5 Z M606.2,796.8 L519.5,796.8 C518.6,796.8 517.7,796.4 517.1,795.7 C515.9,794.4 516,792.3 517.3,791.1 L545.1,766.1 C545.2,766 545.3,765.8 545.3,765.6 L554.5,590.1 L554.5,589.9 L527.3,433.4 C527.3,433.3 527.2,433.1 527.2,433 C526.8,429 529.6,425.4 533.6,425 C534.4,424.9 535.1,424.9 535.7,424.9 L538.3,424.9 C541.7,424.9 544.7,427.3 545.4,430.6 C558.4,490.4 568.6,542.6 576,587.3 C583.8,633.3 593.8,703.1 606.2,796.8 Z" id="Shape" fill="#495EB8"></path>
            <path d="M547.4,588.4 C546.5,580.7 552,573.7 559.7,572.7 L564.8,572.1 C572.5,571.2 579.6,576.6 580.8,584.3 C580.8,584.4 580.8,584.5 580.8,584.6 C581.7,592.1 576.4,599 568.9,599.9 L563,600.6 C563,600.6 562.9,600.6 562.9,600.6 C555.3,601.6 548.3,596.1 547.4,588.4 Z M556.4,587.1 C556.8,590.5 559.9,592.9 563.3,592.5 L566,592.2 C569.3,591.8 571.6,588.8 571.2,585.6 C571.2,585.5 571.2,585.5 571.2,585.4 C570.7,582 567.6,579.6 564.2,580 L561.8,580.3 C558.4,580.6 556,583.7 556.4,587.1 C556.4,587 556.4,587.1 556.4,587.1 Z" id="Shape" fill="#DBECFF"></path>
            <path d="M546.3,588.9 C545.3,580.8 551.1,573.4 559.3,572.4 L564.4,571.8 C572.6,570.8 580,576.5 581.2,584.6 C581.2,584.7 581.2,584.8 581.2,584.9 C582.2,592.8 576.6,600.1 568.6,601 L562.7,601.7 L562.6,601.7 C554.6,602.7 547.2,597 546.3,588.9 Z M547.8,588.7 C548.7,596 555.3,601.2 562.5,600.3 L562.6,600.3 L568.5,599.6 C575.6,598.7 580.7,592.2 579.8,585.1 C579.8,585 579.8,584.9 579.8,584.8 C578.7,577.5 572,572.4 564.7,573.2 L559.6,573.8 C552.1,574.7 546.9,581.4 547.8,588.7 Z M555.3,587.5 C554.9,583.7 557.6,580.3 561.3,579.9 L563.7,579.6 C567.5,579.2 571,581.8 571.5,585.6 C571.5,585.7 571.5,585.7 571.5,585.8 C572,589.5 569.3,592.8 565.7,593.3 L563,593.6 C559.2,594 555.8,591.3 555.3,587.5 L555.3,587.5 Z M562.8,592.1 L565.5,591.8 C568.3,591.5 570.4,588.9 570,586 C570,585.9 570,585.9 570,585.8 C569.5,582.8 566.8,580.7 563.8,581.1 L561.4,581.4 C558.5,581.7 556.4,584.4 556.7,587.4 L556.7,587.4 C557.1,590.3 559.8,592.4 562.8,592.1 Z" id="Shape" fill="#495EB8"></path>
            <path d="M486.7,430.2 L437.3,588.4 L510.2,722.6 L505.7,769.2 C505.5,771.4 507.1,773.4 509.3,773.6 C510.4,773.7 511.5,773.4 512.3,772.7 L579.8,715.1 L563.8,699.1 L460.9,589.3 L505.7,433.6 C506.9,429.6 504.5,425.4 500.5,424.3 C499.8,424.1 499.1,424 498.4,424 C497.7,424 497,424 496.2,423.9 C492,423.4 487.9,426 486.7,430.2 Z" id="Path" fill="#FFFFFF"></path>
            <path d="M509.9,722.9 L509.8,722.5 L509.8,722.7 L509.9,722.9 Z M505.3,769.1 C505,771.7 507,774 509.6,774.3 C510.9,774.4 512.2,774 513.1,773.2 L580.6,715.6 C580.9,715.3 580.9,714.8 580.6,714.5 L564.6,698.5 L462.1,589.1 L506.8,433.9 C508.1,429.5 505.5,424.9 501.1,423.7 C500.4,423.5 499.6,423.4 498.8,423.4 C498.1,423.4 497.4,423.4 496.7,423.3 C492,422.8 487.7,425.6 486.3,430.1 L436.9,588.1 C436.8,588.3 436.9,588.5 437,588.7 L509.8,722.7 L505.3,769.1 Z M512.1,772 C511.4,772.6 510.6,772.8 509.7,772.8 C507.9,772.6 506.6,771 506.8,769.3 L511.3,722.7 C511.3,722.5 511.3,722.4 511.2,722.3 L438.4,588.4 L487.7,430.5 C488.9,426.7 492.6,424.3 496.5,424.8 C497.3,424.9 498,424.9 498.8,424.9 C499.4,424.9 500.1,425 500.7,425.2 C504.3,426.2 506.4,430 505.3,433.6 L460.5,589.1 C460.4,589.4 460.5,589.6 460.7,589.8 L563.6,699.5 L579,714.9 L512.1,772 Z" id="Shape" fill="#495EB8"></path>
            <path d="M433.6,593 C432.2,585.5 437,578.2 444.4,576.5 L449.7,575.3 C456.9,573.7 464.1,578.2 465.9,585.3 C467.7,592.4 463.3,599.7 456.2,601.5 L449.5,603.2 C449.3,603.3 449,603.3 448.8,603.4 C441.8,604.7 434.9,600.1 433.6,593 Z M442.5,591.5 C443.1,594.6 446.2,596.6 449.3,596 C449.4,596 449.4,596 449.5,596 L452.8,595.2 C455.8,594.5 457.7,591.5 457,588.5 C457,588.4 457,588.4 457,588.4 C456.2,585.3 453.1,583.4 449.9,584 L447.2,584.6 C443.9,585.2 441.9,588.3 442.5,591.5 Z" id="Shape" fill="#DBECFF"></path>
            <path d="M432.9,593.5 C431.4,585.6 436.4,577.9 444.3,576.1 L449.6,574.9 C457.2,573.2 464.8,577.9 466.7,585.5 C468.6,593 464,600.7 456.4,602.6 L449.7,604.3 C449.5,604.4 449.2,604.4 449,604.5 C441.6,605.9 434.4,601 432.9,593.5 Z M434.4,593.2 C435.7,599.9 442.1,604.2 448.8,603 C449,603 449.2,602.9 449.5,602.9 L456.2,601.2 C462.9,599.5 467,592.7 465.4,586 C463.7,579.2 456.9,575 450.1,576.5 L444.8,577.7 C437.6,579.2 433,586.1 434.4,593.2 Z M441.9,592 C441.2,588.4 443.5,584.9 447.1,584.1 L449.8,583.5 C453.3,582.8 456.8,584.9 457.7,588.4 C457.7,588.5 457.7,588.5 457.7,588.6 C458.5,592 456.4,595.4 453,596.2 L449.7,597 C449.6,597 449.6,597 449.5,597 C446.1,597.8 442.6,595.5 441.9,592 Z M443.4,591.7 C444,594.4 446.6,596.1 449.3,595.6 C449.3,595.6 449.4,595.6 449.4,595.6 L452.7,594.8 C455.3,594.2 456.9,591.6 456.3,589 C456.3,589 456.3,588.9 456.3,588.9 C455.6,586.2 452.9,584.5 450.1,585.1 L447.4,585.7 C444.6,586.2 442.8,588.9 443.4,591.7 Z" id="Shape" fill="#495EB8"></path>
            <path d="M336.3,495.3 C337.7,490.6 342,487.4 347,487.4 C351.5,487.4 355.2,491.1 355.2,495.6 C355.2,497.1 355.2,497.9 355.2,498.2 C355.2,498.2 355.2,498.2 355.2,498.2 C355.2,503.4 351.1,507.6 345.9,507.7 L344.1,507.7 C343.7,507.7 343.3,507.7 343,507.6 C338.3,507 335,502.7 335.6,498.1 C335.6,497.8 335.8,496.8 336.3,495.3 Z M291.3,386.3 C292.7,381.6 297,378.4 302,378.4 C306.5,378.4 310.2,382.1 310.2,386.6 C310.2,388.1 310.2,388.9 310.2,389.2 C310.2,389.2 310.2,389.2 310.2,389.2 C310.2,394.4 306.1,398.6 300.9,398.7 L299.1,398.7 C298.7,398.7 298.3,398.7 298,398.6 C293.3,398 290,393.7 290.6,389.1 C290.6,388.8 290.8,387.8 291.3,386.3 Z M755.3,364.3 C756.7,359.6 761,356.4 766,356.4 C770.5,356.4 774.2,360.1 774.2,364.6 C774.2,366.1 774.2,366.9 774.2,367.2 C774.2,367.2 774.2,367.2 774.2,367.2 C774.2,372.4 770.1,376.6 764.9,376.7 L763.1,376.7 C762.7,376.7 762.3,376.7 762,376.6 C757.3,376 754,371.7 754.6,367.1 C754.6,366.8 754.8,365.8 755.3,364.3 Z M657.3,529.3 C658.7,524.6 663,521.4 668,521.4 C672.5,521.4 676.2,525.1 676.2,529.6 C676.2,531.1 676.2,531.9 676.2,532.2 C676.2,532.2 676.2,532.2 676.2,532.2 C676.2,537.4 672.1,541.6 666.9,541.7 L665.1,541.7 C664.7,541.7 664.3,541.7 664,541.6 C659.3,541 656,536.7 656.6,532.1 C656.6,531.8 656.8,530.8 657.3,529.3 Z M786.3,589.3 C787.7,584.6 792,581.4 797,581.4 C801.5,581.4 805.2,585.1 805.2,589.6 C805.2,591.1 805.2,591.9 805.2,592.2 C805.2,592.2 805.2,592.2 805.2,592.2 C805.2,597.4 801.1,601.6 795.9,601.7 L794.1,601.7 C793.7,601.7 793.3,601.7 793,601.6 C788.3,601 785,596.7 785.6,592.1 C785.6,591.8 785.8,590.8 786.3,589.3 Z M678.3,201.3 C679.7,196.6 684,193.4 689,193.4 C693.5,193.4 697.2,197.1 697.2,201.6 C697.2,203.1 697.2,204 697.2,204.2 C697.2,204.2 697.2,204.2 697.2,204.2 C697.2,209.4 693.1,213.6 687.9,213.7 L686.1,213.7 C685.7,213.7 685.3,213.7 685,213.6 C680.3,213 677,208.7 677.6,204.1 C677.6,203.8 677.8,202.8 678.3,201.3 Z M87.3,457.3 C88.7,452.6 93,449.4 98,449.4 C102.5,449.4 106.2,453.1 106.2,457.6 C106.2,459.1 106.2,459.9 106.2,460.2 C106.2,460.2 106.2,460.2 106.2,460.2 C106.2,465.4 102.1,469.6 96.9,469.7 L95.1,469.7 C94.7,469.7 94.3,469.7 94,469.6 C89.3,469 86,464.7 86.6,460.1 C86.6,459.8 86.8,458.8 87.3,457.3 Z M207.3,239.3 C208.7,234.6 213,231.4 218,231.4 C222.5,231.4 226.2,235.1 226.2,239.6 C226.2,241.1 226.2,241.9 226.2,242.2 C226.2,242.2 226.2,242.2 226.2,242.2 C226.2,247.4 222.1,251.6 216.9,251.7 L215.1,251.7 C214.7,251.7 214.3,251.7 214,251.6 C209.3,251 206,246.7 206.6,242.1 C206.6,241.8 206.8,240.8 207.3,239.3 Z" id="Shape" fill="#DBECFF"></path>
            <path d="M154,584.4 C145.5,578.8 139.6,569.4 139,558.5 C138,540.3 152,524.8 170.2,523.8 C188.4,522.8 203.9,536.8 204.9,555 C205.5,566.2 200.5,576.3 192.3,582.7 L180,567 C183.2,564.5 185.2,560.5 185,556.1 C184.6,548.9 178.5,543.4 171.3,543.8 C164.1,544.2 158.6,550.3 159,557.5 C159.2,561.8 161.5,565.5 164.9,567.7 L154,584.4 Z" id="Path" fill="#DBECFF"></path>
            <path d="M154.7,585.7 L154.1,585.3 C145.1,579.4 139.4,569.7 138.8,558.8 C137.8,540.2 152.1,524.3 170.7,523.3 C189.3,522.3 205.2,536.6 206.2,555.2 C206.8,566.3 201.9,576.8 193.3,583.5 L192.7,584 L179.4,567.1 L180,566.6 C183.1,564.2 184.9,560.3 184.7,556.3 C184.3,549.5 178.6,544.4 171.8,544.7 C165,545.1 159.9,550.8 160.2,557.6 C160.4,561.6 162.5,565.1 165.8,567.2 L166.4,567.6 L154.7,585.7 Z M154.2,583.7 L164.3,568.2 C161,565.8 158.9,562 158.7,557.8 C158.3,550.2 164.1,543.7 171.7,543.3 C179.3,542.9 185.8,548.7 186.2,556.3 C186.4,560.6 184.7,564.6 181.5,567.4 L192.9,582 C200.8,575.5 205.2,565.8 204.6,555.4 C203.7,537.6 188.5,524 170.7,524.9 C152.9,525.8 139.2,541 140.2,558.8 C140.8,568.9 146,578 154.2,583.7 Z" id="Shape" fill="#495EB8"></path>
            <path d="M620.8,333.4 L809.9,259.1 C814,257.5 818.7,259.5 820.3,263.6 C820.5,264.1 820.6,264.6 820.7,265.1 L858.4,478.5 C858.9,481.2 857.1,483.8 854.3,484.3 C853.4,484.5 852.4,484.4 851.5,484 L615.4,386 L615.4,410 L853.8,514 C866,519.3 880.1,513.7 885.4,501.6 C887.2,497.4 887.8,492.8 887.1,488.3 L849.2,248.8 C846.7,233 831.8,222.2 816,224.7 C813.7,225.1 811.4,225.7 809.2,226.7 L612,310.5 C607.7,312.3 605,316.7 605.3,321.4 C605.4,322.8 605.6,324.2 605.9,325.5 C605.9,325.5 605.9,325.6 605.9,325.6 C607.3,331.5 613.2,335.2 619.1,333.8 C619.8,333.7 620.3,333.6 620.8,333.4 Z" id="Path" fill="#FFFFFF"></path>
            <path d="M621.3,334.1 L810.4,259.8 C814.1,258.3 818.3,260.2 819.8,263.9 C820,264.3 820.1,264.8 820.2,265.3 L857.9,478.7 C858.3,481 856.8,483.2 854.5,483.6 C853.7,483.7 852.9,483.7 852.1,483.3 L615,384.9 L615,410.5 L853.8,514.7 C866.3,520.2 880.9,514.4 886.4,501.9 C888.3,497.6 888.9,492.8 888.2,488.1 L850.3,248.6 C847.7,232.4 832.5,221.3 816.3,223.9 C813.9,224.3 811.5,225 809.3,225.9 L612,309.8 C607.4,311.8 604.5,316.5 604.9,321.5 C605,322.9 605.2,324.3 605.5,325.7 C605.5,325.8 605.5,325.8 605.5,325.8 C607,332.1 613.3,336 619.6,334.6 C620.3,334.5 620.8,334.3 621.3,334.1 Z M616.6,387.2 L851.6,484.8 C852.6,485.2 853.7,485.3 854.8,485.2 C857.9,484.6 860,481.7 859.5,478.5 L821.8,265.1 C821.7,264.5 821.5,264 821.3,263.4 C819.5,258.9 814.5,256.7 810,258.5 L620.9,332.8 C620.4,333 620,333.1 619.5,333.2 C614,334.5 608.5,331.1 607.2,325.6 C607.2,325.5 607.2,325.5 607.2,325.5 C606.9,324.2 606.7,322.8 606.6,321.5 C606.3,317.1 608.8,313 612.8,311.3 L810.1,227.4 C812.2,226.5 814.5,225.9 816.8,225.5 C832.2,223.1 846.7,233.6 849.1,249 L887,488.5 C887.7,492.9 887.1,497.4 885.3,501.4 C880.2,513.2 866.5,518.5 854.7,513.4 L616.8,409.6 L616.8,387.2 L616.6,387.2 Z" id="Shape" fill="#495EB8"></path>
            <path d="M622.8,477.9 C613.2,474.4 605.4,466.5 602.4,456 C597.4,438.5 607.5,420.2 625,415.2 C642.5,410.2 660.8,420.3 665.8,437.8 C668.9,448.5 666.3,459.6 659.7,467.6 L644.1,455 C646.7,451.8 647.7,447.5 646.5,443.2 C644.5,436.3 637.3,432.3 630.4,434.3 C623.5,436.3 619.5,443.5 621.5,450.4 C622.7,454.6 625.8,457.7 629.6,459 L622.8,477.9 Z" id="Path" fill="#DBECFF"></path>
            <path d="M623.2,478.9 L622.5,478.6 C612.4,474.9 604.6,466.7 601.6,456.2 C596.5,438.3 606.8,419.6 624.7,414.5 C642.6,409.4 661.3,419.7 666.5,437.6 C669.6,448.3 667.2,459.6 660.3,468.1 L659.8,468.7 L643.1,455.2 L643.6,454.6 C646.1,451.5 647,447.4 645.8,443.5 C643.9,437 637.1,433.2 630.6,435.1 C624.1,437 620.3,443.7 622.2,450.3 C623.3,454.1 626.1,457.1 629.8,458.4 L630.5,458.7 L623.2,478.9 Z M628.7,459.6 C624.9,458 622,454.8 620.9,450.7 C618.8,443.4 623,435.8 630.3,433.7 C637.6,431.6 645.2,435.8 647.3,443.1 C648.5,447.2 647.7,451.6 645.2,454.9 L659.6,466.5 C665.8,458.4 667.9,447.9 665.1,437.9 C660.2,420.8 642.3,410.9 625.2,415.8 C608.1,420.7 598.2,438.6 603.1,455.7 C605.9,465.5 613.1,473.2 622.4,476.8 L628.7,459.6 Z" id="Shape" fill="#495EB8"></path>
            <path d="M628.1,420.4 C636.7,419.2 642.7,411.2 641.5,402.6 C641.5,402.3 641.4,402.1 641.4,401.8 L639.8,393.4 C638.1,384.7 629.8,379.1 621.1,380.7 C621.1,380.7 621,380.7 621,380.7 C612.2,382.4 606.4,390.8 607.9,399.6 L609,406.3 C610.6,415.5 619,421.7 628.1,420.4 Z" id="Path" fill="#FFFFFF"></path>
            <path d="M628.1,420.9 C637.1,419.6 643.4,411.3 642.2,402.2 C642.2,401.9 642.1,401.7 642.1,401.4 L640.5,393 C638.8,383.9 630,378 620.9,379.7 L620.8,379.7 C611.6,381.5 605.6,390.2 607.1,399.5 L608.2,406.2 C609.7,415.8 618.6,422.3 628.1,420.9 Z M627.9,419.5 C619.2,420.7 611.1,414.8 609.7,406.1 L608.6,399.4 C607.2,391 612.8,383 621.1,381.4 L621.2,381.4 C629.4,379.8 637.4,385.2 639,393.5 L640.6,401.9 C640.7,402.1 640.7,402.4 640.7,402.6 C641.8,410.7 636.1,418.3 627.9,419.5 Z" id="Shape" fill="#495EB8"></path>
            <path d="M452.7,281.1 L577.2,290.1 C581.1,290.4 584,293.7 583.7,297.6 C583.7,297.7 583.7,297.9 583.7,298 L571.7,386.7 C571.2,390.4 567.8,393.1 564.1,392.7 L437.7,380.7 C433.9,380.3 431,376.9 431.4,373.1 C431.4,372.9 431.4,372.8 431.5,372.6 L445.4,286.9 C445.9,283.3 449.1,280.8 452.7,281.1 Z M438.3,373.6 L564.7,385.8 L576.8,297 L452.1,288 L438.3,373.6 Z M486.4,337 C481.4,337 477.4,333 477.4,328 C477.4,323 481.4,319 486.4,319 C491.4,319 495.4,323 495.4,328 C495.4,333 491.3,337 486.4,337 Z M472.6,347.8 L537.4,352.3 L537.1,356.3 L472.3,351.8 L472.6,347.8 Z M527.6,340 L519.4,330.2 L529.2,322 L537.4,331.8 L527.6,340 Z" id="Shape" fill="#DBECFF"></path>
            <path d="M818.3,225 C824.7,224.4 829.5,224.9 832.8,226.5 C836.1,228.1 840.2,231.9 845.3,238 L819.3,261.5 C818,260.5 817,259.8 816.3,259.5 C815.6,259.2 814.5,258.8 812.8,258.5 L818.3,225 Z M282.8,269.5 C287.1,267.3 291.1,265.8 294.8,265 C298.5,264.2 304.1,263.7 311.8,263.5 L305.3,292.5 L301.8,293 L298.3,294.1 L282.8,269.5 Z M170.7,370.6 C172.1,364.7 173.4,360.2 174.8,357 C176.2,353.9 178.7,349.3 182.4,343.4 L205.3,368.5 L203.7,371.7 L202.6,375.2 L170.7,370.6 Z M887.8,491.5 C886.1,500 883.9,505.6 881.3,508.5 C878.7,511.4 873.5,513.7 865.8,515.5 L853.8,484.5 C855.6,484 856.8,483.4 857.3,482.9 C857.8,482.4 858.3,481.4 858.8,480 L887.8,491.5 Z" id="Shape" fill="#495EB8"></path>
            <path d="M594.3,135.7 L603.8,150.2 L660.2,141.8 L660.4,143.3 L603.1,151.9 L593,136.4 L558.4,139.8 C558,139.8 557.6,139.5 557.6,139.1 C557.5,138.7 557.9,138.3 558.3,138.3 L593,134.9 L596,111 L650.1,93.9 C650.5,93.8 650.9,94 651,94.4 C651.1,94.8 650.9,95.2 650.5,95.3 L597.3,112.2 L594.3,135.7 Z" id="Path" fill="#495EB8"></path>
            <path d="M452.7,363.8 C452.3,363.8 452,363.4 452,362.9 L461.5,304.4 C461.6,304 461.9,303.7 462.3,303.8 L561.8,311.3 C562.2,311.3 562.6,311.7 562.5,312.2 L554,372.2 C553.9,372.6 553.6,372.9 553.2,372.8 L452.7,363.8 Z M462.9,305.3 L453.6,362.3 L552.6,371.2 L560.9,312.7 L462.9,305.3 Z M452.3,280.5 L576.8,289.5 C581.1,289.8 584.3,293.5 584,297.8 C584,298 584,298.1 583.9,298.3 L571.9,387 C571.3,391.1 567.6,394.1 563.5,393.7 L437.1,381.7 C432.8,381.3 429.7,377.5 430.1,373.3 C430.1,373.1 430.1,373 430.2,372.8 L444.1,287.1 C444.7,283.1 448.3,280.2 452.3,280.5 Z M452.2,282 C449,281.8 446.1,284 445.6,287.2 L431.7,372.9 C431.7,373 431.7,373.2 431.6,373.3 C431.3,376.7 433.8,379.8 437.2,380.1 L563.6,392.1 C566.9,392.4 569.9,390 570.4,386.7 L582.4,298 C582.4,297.9 582.4,297.7 582.4,297.6 C582.6,294.2 580.1,291.2 576.6,290.9 L452.2,282 Z M437,374.5 L451.1,287.4 L577.2,296.5 L564.9,386.8 L437,374.5 Z M563.7,385.2 L575.6,297.9 L452.4,289.1 L438.8,373.2 L563.7,385.2 Z M486.3,337.8 C480.9,337.8 476.5,333.4 476.5,328 C476.5,322.6 480.9,318.2 486.3,318.2 C491.7,318.2 496.1,322.6 496.1,328 C496.1,333.4 491.7,337.8 486.3,337.8 Z M486.3,336.3 C490.9,336.3 494.5,332.6 494.5,328.1 C494.5,323.5 490.8,319.9 486.3,319.9 C481.7,319.9 478.1,323.6 478.1,328.1 C478.1,332.6 481.7,336.3 486.3,336.3 Z M471.8,347 L538.1,351.6 L537.7,357.1 L471.4,352.5 L471.8,347 Z M473,351.1 L536.3,355.5 L536.5,353 L473.2,348.6 L473,351.1 Z M527.4,341.1 L518.3,330.2 L529.2,321.1 L538.3,332 L527.4,341.1 Z M536.2,331.7 L529,323.1 L520.4,330.3 L527.6,338.9 L536.2,331.7 Z" id="Shape" fill="#495EB8"></path>
            <path d="M556.3,766.3 L556.3,764.8 L556.3,766.3 Z M556.3,764.8 C557.3,764.8 557.3,766.3 556.3,766.3 L544.8,766.3 C543.8,766.3 543.8,764.8 544.8,764.8 L556.3,764.8 L567.8,764.8 C568.8,764.8 568.8,766.3 567.8,766.3 L556.3,766.3 C555.3,766.3 555.3,764.8 556.3,764.8 Z M520.5,715.4 L519.5,714.2 L520.5,715.4 Z M520.5,715.4 L511.3,723.2 C510.5,723.8 509.6,722.7 510.3,722 L519.5,714.2 L528.7,706.4 C529.5,705.8 530.4,706.9 529.7,707.6 L520.5,715.4 Z" id="Shape" fill="#495EB8"></path>
        </g>
    </g>
</svg>