<svg width="193" height="46" viewBox="0 0 193 46" fill="none" xmlns="http://www.w3.org/2000/svg">
<path d="M26.068 14.72V10.196C26.068 3.69599 22.948 0.367996 14.524 0.367996H1.38C0.827712 0.367996 0.379997 0.815711 0.379997 1.368V34C0.379997 34.5523 0.827713 35 1.38 35H7.18C7.73228 35 8.18 34.5523 8.18 34V25.496C8.18 24.9437 8.62771 24.496 9.18 24.496H14.108C22.532 24.496 26.068 21.22 26.068 14.72ZM18.268 13.94C18.268 16.436 17.54 17.736 14.108 17.736H9.18C8.62771 17.736 8.18 17.2883 8.18 16.736V8.28399C8.18 7.73171 8.62771 7.28399 9.18 7.28399H14.108C17.384 7.28399 18.268 8.42799 18.268 10.924V13.94Z" fill="white"/>
<path d="M32.1775 45.2354C32.5229 45.6468 33.1329 45.712 33.5532 45.3774C37.723 42.0578 40.18 39.2892 40.18 36.196V1.368C40.18 0.815711 39.7323 0.367996 39.18 0.367996H33.38C32.8277 0.367996 32.38 0.815711 32.38 1.368V35C32.38 36.6846 32.0236 37.3 28.9603 39.8152C28.5278 40.1703 28.4633 40.8117 28.8232 41.2403L32.1775 45.2354Z" fill="white"/>
<path d="M62.7443 35C63.2966 35 63.7443 34.5523 63.7443 34V20.694C63.7443 14.484 62.0423 12.138 54.2683 12.138C52.0165 12.138 49.1672 12.4895 47.0722 13.0081C46.5815 13.1296 46.2842 13.6163 46.3717 14.1141L46.9157 17.2062C47.0127 17.7574 47.5431 18.1203 48.0949 18.0261C49.8393 17.7285 51.5018 17.566 53.1643 17.566C56.7063 17.566 57.1203 18.348 57.1203 20.648V21.35C57.1203 21.9023 56.6726 22.35 56.1203 22.35H52.2903C47.6903 22.35 45.6203 24.144 45.6203 28.652C45.6203 32.47 47.3223 35.46 51.4623 35.46C52.8149 35.46 54.7884 35.0948 57.0247 34.0064C57.4612 33.794 57.9949 34.0037 58.1439 34.4656C58.2467 34.7841 58.5431 35 58.8778 35H62.7443ZM57.1203 28.8821C57.1203 29.2742 56.8929 29.6349 56.5281 29.7788C55.7145 30.0997 54.8723 30.308 53.7623 30.308C52.4743 30.308 51.9683 29.802 51.9683 28.56C51.9683 27.318 52.5203 26.95 53.9463 26.95H56.1203C56.6726 26.95 57.1203 27.3977 57.1203 27.95V28.8821Z" fill="white"/>
<path d="M86.6242 34.2862C86.7507 34.7098 87.1403 35 87.5823 35H93.1711C93.6578 35 94.0738 34.6496 94.1566 34.17L97.6756 13.768C97.781 13.1568 97.3104 12.598 96.6901 12.598H92.6569C92.1662 12.598 91.7479 12.9541 91.6697 13.4387L90.391 21.3611C90.2214 22.412 88.7455 22.5055 88.4446 21.4845L86.0368 13.3153C85.9114 12.89 85.521 12.598 85.0776 12.598H79.9467C79.5045 12.598 79.1148 12.8884 78.9884 13.3122L76.5405 21.5198C76.2368 22.5382 74.7643 22.4425 74.595 21.3933L73.3111 13.4387C73.2329 12.9541 72.8146 12.598 72.3238 12.598H68.2906C67.6704 12.598 67.1998 13.1568 67.3052 13.768L70.8242 34.17C70.9069 34.6496 71.323 35 71.8097 35H77.3962C77.8393 35 78.2296 34.7084 78.3552 34.2835L81.5135 23.5991C81.7955 22.6451 83.1459 22.6432 83.4306 23.5963L86.6242 34.2862Z" fill="white"/>
<path d="M110.669 35.46C118.627 35.46 120.789 30.998 120.789 26.398V21.2C120.789 16.6 118.627 12.138 110.669 12.138C102.711 12.138 100.549 16.6 100.549 21.2V26.398C100.549 30.998 102.711 35.46 110.669 35.46ZM110.669 29.894C108.277 29.894 107.173 28.698 107.173 26.582V21.016C107.173 18.9 108.277 17.704 110.669 17.704C113.061 17.704 114.165 18.9 114.165 21.016V26.582C114.165 28.698 113.061 29.894 110.669 29.894Z" fill="white"/>
<path d="M137.464 18.6735C137.873 18.5046 138.129 18.0915 138.09 17.6505L137.702 13.255C137.649 12.6599 137.09 12.2471 136.522 12.4306C135.319 12.8186 133.921 13.4407 132.806 14.0368C132.203 14.3592 131.423 14.0336 131.281 13.3646C131.185 12.9176 130.791 12.598 130.334 12.598H126.597C126.045 12.598 125.597 13.0457 125.597 13.598V34C125.597 34.5523 126.045 35 126.597 35H131.221C131.774 35 132.221 34.5523 132.221 34V21.8545C132.221 21.5305 132.377 21.2245 132.65 21.0501C133.933 20.2308 135.813 19.3545 137.464 18.6735Z" fill="white"/>
<path d="M156.773 28.33C156.773 23.868 156.313 22.488 149.919 21.062C147.251 20.464 147.067 20.28 147.067 18.9C147.067 17.888 147.527 17.382 149.459 17.382C150.906 17.382 152.827 17.5712 154.568 17.8453C155.14 17.9353 155.68 17.5376 155.746 16.9623L156.12 13.7416C156.178 13.2446 155.86 12.78 155.369 12.6851C153.429 12.3104 150.886 12.138 149.413 12.138C142.697 12.138 140.857 14.116 140.857 18.854C140.857 23.04 141.363 24.512 146.791 25.846C150.379 26.72 150.425 26.904 150.425 28.33C150.425 29.664 150.103 30.216 148.125 30.216C146.086 30.216 144.079 29.9062 142.407 29.4899C141.841 29.3489 141.258 29.6922 141.135 30.2629L140.493 33.2504C140.386 33.7488 140.67 34.2496 141.161 34.387C143.346 34.9983 146.305 35.46 148.447 35.46C154.841 35.46 156.773 32.93 156.773 28.33Z" fill="white"/>
<path d="M166.979 35C167.532 35 167.979 34.5523 167.979 34V3.67248C167.979 3.0655 167.443 2.59849 166.842 2.68199L162.218 3.32421C161.723 3.39288 161.355 3.81558 161.355 4.3147V34C161.355 34.5523 161.803 35 162.355 35H166.979ZM169.091 23.2659C168.942 23.5567 168.944 23.902 169.098 24.1906L174.551 34.4687C174.725 34.7956 175.065 35 175.435 35H180.23C180.99 35 181.472 34.1865 181.108 33.5201L176.011 24.2019C175.85 23.9073 175.848 23.5514 176.005 23.2545L180.865 14.0655C181.217 13.3996 180.734 12.598 179.981 12.598H175.168C174.793 12.598 174.45 12.808 174.278 13.142L169.091 23.2659Z" fill="white"/>
<path d="M191.237 9.792C191.789 9.792 192.237 9.34428 192.237 8.792V3.754C192.237 3.20171 191.789 2.75399 191.237 2.75399H186.613C186.061 2.75399 185.613 3.20171 185.613 3.75399V8.79199C185.613 9.34428 186.061 9.792 186.613 9.792H191.237ZM191.237 35C191.789 35 192.237 34.5523 192.237 34V13.598C192.237 13.0457 191.789 12.598 191.237 12.598H186.613C186.061 12.598 185.613 13.0457 185.613 13.598V34C185.613 34.5523 186.061 35 186.613 35H191.237Z" fill="white"/>
</svg>
