<svg width="232" height="76" viewBox="0 0 232 76" fill="none" xmlns="http://www.w3.org/2000/svg">
<path d="M20.072 7.6C23.296 7.6 26.0867 8.13734 28.444 9.21201C30.836 10.2867 32.6733 11.812 33.956 13.788C35.2387 15.764 35.88 18.104 35.88 20.808C35.88 23.4773 35.2387 25.8173 33.956 27.828C32.6733 29.804 30.836 31.3293 28.444 32.404C26.0867 33.444 23.296 33.964 20.072 33.964H12.74V44H4.316V7.6H20.072ZM19.604 27.1C22.1347 27.1 24.0587 26.5627 25.376 25.488C26.6933 24.3787 27.352 22.8187 27.352 20.808C27.352 18.7627 26.6933 17.2027 25.376 16.128C24.0587 15.0187 22.1347 14.464 19.604 14.464H12.74V27.1H19.604Z" fill="white"/>
<path d="M51.2448 0.216003H58.4728L41.3128 49.2H34.0848L51.2448 0.216003Z" fill="white"/>
<path d="M66.6803 44.624C64.2189 44.624 61.9483 44.1733 59.8683 43.272C57.8229 42.336 56.1416 41.0187 54.8243 39.32L59.5043 33.704C61.4803 36.3733 63.7336 37.708 66.2643 37.708C69.6963 37.708 71.4123 35.6973 71.4123 31.676V14.36H58.6203V7.6H79.7843V31.208C79.7843 35.68 78.6749 39.0427 76.4563 41.296C74.2376 43.5147 70.9789 44.624 66.6803 44.624Z" fill="white"/>
<path d="M98.8171 15.608C103.15 15.608 106.478 16.648 108.801 18.728C111.124 20.7733 112.285 23.876 112.285 28.036V44H104.693V40.516C103.168 43.116 100.325 44.416 96.1651 44.416C94.0157 44.416 92.1437 44.052 90.5491 43.324C88.9891 42.596 87.7931 41.5907 86.9611 40.308C86.1291 39.0253 85.7131 37.5693 85.7131 35.94C85.7131 33.34 86.6837 31.2947 88.6251 29.804C90.6011 28.3133 93.6344 27.568 97.7251 27.568H104.173C104.173 25.8 103.636 24.448 102.561 23.512C101.486 22.5413 99.8744 22.056 97.7251 22.056C96.2344 22.056 94.7611 22.2987 93.3051 22.784C91.8837 23.2347 90.6704 23.8587 89.6651 24.656L86.7531 18.988C88.2784 17.9133 90.0984 17.0813 92.2131 16.492C94.3624 15.9027 96.5637 15.608 98.8171 15.608ZM98.1931 38.956C99.5797 38.956 100.81 38.644 101.885 38.02C102.96 37.3613 103.722 36.408 104.173 35.16V32.3H98.6091C95.2811 32.3 93.6171 33.392 93.6171 35.576C93.6171 36.616 94.0157 37.448 94.8131 38.072C95.6451 38.6613 96.7717 38.956 98.1931 38.956Z" fill="white"/>
<path d="M164.047 16.024L153.907 44H146.107L139.815 26.632L133.315 44H125.515L115.427 16.024H123.071L129.675 34.952L136.539 16.024H143.403L150.059 34.952L156.871 16.024H164.047Z" fill="white"/>
<path d="M7.68 75.16C6.31467 75.16 5.00267 74.968 3.744 74.584C2.50667 74.1787 1.536 73.6773 0.832001 73.08L1.856 71.288C2.56 71.8427 3.44533 72.3013 4.512 72.664C5.57867 73.0053 6.688 73.176 7.84 73.176C9.376 73.176 10.5067 72.9413 11.232 72.472C11.9787 71.9813 12.352 71.2987 12.352 70.424C12.352 69.8053 12.1493 69.3253 11.744 68.984C11.3387 68.6213 10.8267 68.3547 10.208 68.184C9.58933 67.992 8.768 67.8107 7.744 67.64C6.37867 67.384 5.28 67.128 4.448 66.872C3.616 66.5947 2.90133 66.136 2.304 65.496C1.728 64.856 1.44 63.9707 1.44 62.84C1.44 61.432 2.02667 60.28 3.2 59.384C4.37333 58.488 6.00533 58.04 8.096 58.04C9.184 58.04 10.272 58.1893 11.36 58.488C12.448 58.7653 13.344 59.1387 14.048 59.608L13.056 61.432C11.6693 60.472 10.016 59.992 8.096 59.992C6.64533 59.992 5.54667 60.248 4.8 60.76C4.07467 61.272 3.712 61.944 3.712 62.776C3.712 63.416 3.91467 63.928 4.32 64.312C4.74667 64.696 5.26933 64.984 5.888 65.176C6.50667 65.3467 7.36 65.528 8.448 65.72C9.792 65.976 10.8693 66.232 11.68 66.488C12.4907 66.744 13.184 67.1813 13.76 67.8C14.336 68.4187 14.624 69.272 14.624 70.36C14.624 71.832 14.0053 73.0053 12.768 73.88C11.552 74.7333 9.856 75.16 7.68 75.16Z" fill="white"/>
<path d="M25.7043 75.16C24.0829 75.16 22.6216 74.7973 21.3203 74.072C20.0189 73.3253 18.9949 72.3013 18.2483 71C17.5016 69.6987 17.1283 68.2267 17.1283 66.584C17.1283 64.9413 17.5016 63.4693 18.2483 62.168C18.9949 60.8667 20.0189 59.8533 21.3203 59.128C22.6216 58.4027 24.0829 58.04 25.7043 58.04C27.3256 58.04 28.7869 58.4027 30.0883 59.128C31.3896 59.8533 32.4029 60.8667 33.1283 62.168C33.8749 63.4693 34.2483 64.9413 34.2483 66.584C34.2483 68.2267 33.8749 69.6987 33.1283 71C32.4029 72.3013 31.3896 73.3253 30.0883 74.072C28.7869 74.7973 27.3256 75.16 25.7043 75.16ZM25.7043 73.144C26.8989 73.144 27.9656 72.8773 28.9043 72.344C29.8643 71.7893 30.6109 71.0107 31.1443 70.008C31.6776 69.0053 31.9443 67.864 31.9443 66.584C31.9443 65.304 31.6776 64.1627 31.1443 63.16C30.6109 62.1573 29.8643 61.3893 28.9043 60.856C27.9656 60.3013 26.8989 60.024 25.7043 60.024C24.5096 60.024 23.4323 60.3013 22.4723 60.856C21.5336 61.3893 20.7869 62.1573 20.2323 63.16C19.6989 64.1627 19.4323 65.304 19.4323 66.584C19.4323 67.864 19.6989 69.0053 20.2323 70.008C20.7869 71.0107 21.5336 71.7893 22.4723 72.344C23.4323 72.8773 24.5096 73.144 25.7043 73.144Z" fill="white"/>
<path d="M45.8628 75.16C44.1988 75.16 42.7054 74.7973 41.3828 74.072C40.0814 73.3467 39.0574 72.3333 38.3107 71.032C37.5641 69.7093 37.1908 68.2267 37.1908 66.584C37.1908 64.9413 37.5641 63.4693 38.3107 62.168C39.0574 60.8667 40.0814 59.8533 41.3828 59.128C42.7054 58.4027 44.1988 58.04 45.8628 58.04C47.3134 58.04 48.6041 58.328 49.7348 58.904C50.8868 59.4587 51.7934 60.28 52.4548 61.368L50.7588 62.52C50.2041 61.688 49.5001 61.0693 48.6468 60.664C47.7934 60.2373 46.8654 60.024 45.8628 60.024C44.6468 60.024 43.5481 60.3013 42.5667 60.856C41.6067 61.3893 40.8494 62.1573 40.2948 63.16C39.7614 64.1627 39.4948 65.304 39.4948 66.584C39.4948 67.8853 39.7614 69.0373 40.2948 70.04C40.8494 71.0213 41.6067 71.7893 42.5667 72.344C43.5481 72.8773 44.6468 73.144 45.8628 73.144C46.8654 73.144 47.7934 72.9413 48.6468 72.536C49.5001 72.1307 50.2041 71.512 50.7588 70.68L52.4548 71.832C51.7934 72.92 50.8868 73.752 49.7348 74.328C48.5828 74.8827 47.2921 75.16 45.8628 75.16Z" fill="white"/>
<path d="M56.918 58.168H59.19V75H56.918V58.168ZM58.07 54.488C57.6007 54.488 57.206 54.328 56.886 54.008C56.566 53.688 56.406 53.304 56.406 52.856C56.406 52.4293 56.566 52.056 56.886 51.736C57.206 51.416 57.6007 51.256 58.07 51.256C58.5393 51.256 58.934 51.416 59.254 51.736C59.574 52.0347 59.734 52.3973 59.734 52.824C59.734 53.2933 59.574 53.688 59.254 54.008C58.934 54.328 58.5393 54.488 58.07 54.488Z" fill="white"/>
<path d="M71.3997 58.04C73.5971 58.04 75.2824 58.5947 76.4557 59.704C77.6291 60.792 78.2158 62.4133 78.2158 64.568V75H76.0397V72.376C75.5277 73.2507 74.7704 73.9333 73.7678 74.424C72.7864 74.9147 71.6131 75.16 70.2477 75.16C68.3704 75.16 66.8771 74.712 65.7678 73.816C64.6584 72.92 64.1038 71.736 64.1038 70.264C64.1038 68.8347 64.6157 67.6827 65.6397 66.808C66.6851 65.9333 68.3384 65.496 70.5998 65.496H75.9437V64.472C75.9437 63.0213 75.5384 61.9227 74.7278 61.176C73.9171 60.408 72.7331 60.024 71.1758 60.024C70.1091 60.024 69.0851 60.2053 68.1038 60.568C67.1224 60.9093 66.2798 61.3893 65.5758 62.008L64.5518 60.312C65.4051 59.5867 66.4291 59.032 67.6237 58.648C68.8184 58.2427 70.0771 58.04 71.3997 58.04ZM70.5998 73.368C71.8798 73.368 72.9784 73.08 73.8958 72.504C74.8131 71.9067 75.4957 71.0533 75.9437 69.944V67.192H70.6637C67.7837 67.192 66.3438 68.1947 66.3438 70.2C66.3438 71.1813 66.7171 71.96 67.4638 72.536C68.2104 73.0907 69.2558 73.368 70.5998 73.368Z" fill="white"/>
<path d="M84.3867 51.256H86.6588V75H84.3867V51.256Z" fill="white"/>
<path d="M109.932 58.04C112.044 58.04 113.718 58.6587 114.956 59.896C116.214 61.112 116.843 62.8933 116.843 65.24V75H114.572V65.464C114.572 63.7147 114.134 62.3813 113.259 61.464C112.385 60.5467 111.137 60.088 109.516 60.088C107.702 60.088 106.262 60.632 105.196 61.72C104.15 62.7867 103.628 64.2693 103.628 66.168V75H101.355V58.168H103.532V61.272C104.15 60.248 105.003 59.4587 106.091 58.904C107.201 58.328 108.481 58.04 109.932 58.04Z" fill="white"/>
<path d="M137.73 67.288H123.65C123.778 69.0373 124.45 70.456 125.666 71.544C126.882 72.6107 128.418 73.144 130.274 73.144C131.32 73.144 132.28 72.9627 133.154 72.6C134.029 72.216 134.786 71.6613 135.426 70.936L136.706 72.408C135.96 73.304 135.021 73.9867 133.89 74.456C132.781 74.9253 131.554 75.16 130.21 75.16C128.482 75.16 126.946 74.7973 125.602 74.072C124.28 73.3253 123.245 72.3013 122.498 71C121.752 69.6987 121.378 68.2267 121.378 66.584C121.378 64.9413 121.73 63.4693 122.434 62.168C123.16 60.8667 124.141 59.8533 125.378 59.128C126.637 58.4027 128.045 58.04 129.602 58.04C131.16 58.04 132.557 58.4027 133.794 59.128C135.032 59.8533 136.002 60.8667 136.706 62.168C137.41 63.448 137.762 64.92 137.762 66.584L137.73 67.288ZM129.602 59.992C127.981 59.992 126.616 60.5147 125.506 61.56C124.418 62.584 123.8 63.928 123.65 65.592H135.586C135.437 63.928 134.808 62.584 133.698 61.56C132.61 60.5147 131.245 59.992 129.602 59.992Z" fill="white"/>
<path d="M151.251 73.976C150.824 74.36 150.291 74.6587 149.651 74.872C149.032 75.064 148.381 75.16 147.699 75.16C146.12 75.16 144.904 74.7333 144.051 73.88C143.197 73.0267 142.771 71.8213 142.771 70.264V60.088H139.763V58.168H142.771V54.488H145.043V58.168H150.163V60.088H145.043V70.136C145.043 71.1387 145.288 71.9067 145.779 72.44C146.291 72.952 147.016 73.208 147.955 73.208C148.424 73.208 148.872 73.1333 149.299 72.984C149.747 72.8347 150.131 72.6213 150.451 72.344L151.251 73.976Z" fill="white"/>
<path d="M179.778 58.168L173.41 75H171.266L165.954 61.208L160.642 75H158.498L152.162 58.168H154.338L159.618 72.472L165.026 58.168H166.978L172.354 72.472L177.698 58.168H179.778Z" fill="white"/>
<path d="M189.611 75.16C187.989 75.16 186.528 74.7973 185.227 74.072C183.925 73.3253 182.901 72.3013 182.154 71C181.408 69.6987 181.035 68.2267 181.035 66.584C181.035 64.9413 181.408 63.4693 182.154 62.168C182.901 60.8667 183.925 59.8533 185.227 59.128C186.528 58.4027 187.989 58.04 189.611 58.04C191.232 58.04 192.693 58.4027 193.995 59.128C195.296 59.8533 196.309 60.8667 197.035 62.168C197.781 63.4693 198.154 64.9413 198.154 66.584C198.154 68.2267 197.781 69.6987 197.035 71C196.309 72.3013 195.296 73.3253 193.995 74.072C192.693 74.7973 191.232 75.16 189.611 75.16ZM189.611 73.144C190.805 73.144 191.872 72.8773 192.811 72.344C193.771 71.7893 194.517 71.0107 195.051 70.008C195.584 69.0053 195.85 67.864 195.85 66.584C195.85 65.304 195.584 64.1627 195.051 63.16C194.517 62.1573 193.771 61.3893 192.811 60.856C191.872 60.3013 190.805 60.024 189.611 60.024C188.416 60.024 187.338 60.3013 186.378 60.856C185.44 61.3893 184.693 62.1573 184.139 63.16C183.605 64.1627 183.339 65.304 183.339 66.584C183.339 67.864 183.605 69.0053 184.139 70.008C184.693 71.0107 185.44 71.7893 186.378 72.344C187.338 72.8773 188.416 73.144 189.611 73.144Z" fill="white"/>
<path d="M204.969 61.464C205.502 60.3333 206.292 59.48 207.337 58.904C208.404 58.328 209.716 58.04 211.273 58.04V60.248L210.729 60.216C208.958 60.216 207.572 60.76 206.569 61.848C205.566 62.936 205.065 64.4613 205.065 66.424V75H202.793V58.168H204.969V61.464Z" fill="white"/>
<path d="M221.627 66.552L217.659 70.2V75H215.387V51.256H217.659V67.352L227.707 58.168H230.523L223.323 65.048L231.195 75H228.411L221.627 66.552Z" fill="white"/>
</svg>
