<svg width="94" height="61" viewBox="0 0 94 61" fill="none" xmlns="http://www.w3.org/2000/svg">
<path d="M19.625 9.1953C23.6407 9.1953 27.1166 9.86445 30.0528 11.2027C33.0321 12.5411 35.3206 14.4405 36.9183 16.9012C38.516 19.362 39.3147 22.276 39.3147 25.6433C39.3147 28.9674 38.516 31.8814 36.9183 34.3853C35.3206 36.846 33.0321 38.7455 30.0528 40.0838C27.1166 41.379 23.6407 42.0265 19.625 42.0265H10.4926V54.5244H0V9.1953H19.625ZM19.0421 33.4787C22.1942 33.4787 24.5906 32.8096 26.2314 31.4713C27.8722 30.0899 28.6926 28.1472 28.6926 25.6433C28.6926 23.0963 27.8722 21.1536 26.2314 19.8153C24.5906 18.4338 22.1942 17.7431 19.0421 17.7431H10.4926V33.4787H19.0421Z" fill="white"/>
<path d="M58.4524 0H67.4553L46.0816 61H37.0787L58.4524 0Z" fill="white"/>
<path d="M77.6782 55.3015C74.6124 55.3015 71.7843 54.7402 69.1935 53.6178C66.6458 52.4522 64.5517 50.8118 62.9109 48.6964L68.7401 41.7027C71.2013 45.0268 74.0079 46.6889 77.1601 46.6889C81.4348 46.6889 83.5722 44.185 83.5722 39.1773V17.6136H67.639V9.1953H94V38.5944C94 44.1635 92.6182 48.351 89.8548 51.1571C87.0913 53.92 83.0324 55.3015 77.6782 55.3015Z" fill="white"/>
</svg>
