<svg width="115" height="115" viewBox="0 0 115 115" fill="none" xmlns="http://www.w3.org/2000/svg">
<rect width="115" height="115" rx="10" fill="#4E6FBF"/>
<path d="M30.625 36.1953C34.6407 36.1953 38.1166 36.8644 41.0528 38.2027C44.0321 39.5411 46.3206 41.4405 47.9183 43.9012C49.516 46.362 50.3147 49.276 50.3147 52.6433C50.3147 55.9674 49.516 58.8814 47.9183 61.3853C46.3206 63.846 44.0321 65.7455 41.0528 67.0838C38.1166 68.379 34.6407 69.0265 30.625 69.0265H21.4926V81.5244H11V36.1953H30.625ZM30.0421 60.4787C33.1942 60.4787 35.5906 59.8096 37.2314 58.4713C38.8722 57.0899 39.6926 55.1472 39.6926 52.6433C39.6926 50.0963 38.8722 48.1536 37.2314 46.8153C35.5906 45.4338 33.1942 44.7431 30.0421 44.7431H21.4926V60.4787H30.0421Z" fill="white"/>
<path d="M69.4524 27H78.4553L57.0816 88H48.0787L69.4524 27Z" fill="white"/>
<path d="M88.6782 82.3015C85.6124 82.3015 82.7843 81.7402 80.1935 80.6178C77.6458 79.4522 75.5517 77.8118 73.9109 75.6964L79.7401 68.7027C82.2013 72.0268 85.0079 73.6889 88.1601 73.6889C92.4348 73.6889 94.5722 71.185 94.5722 66.1773V44.6136H78.639V36.1953H105V65.5944C105 71.1635 103.618 75.351 100.855 78.1571C98.0913 80.92 94.0324 82.3015 88.6782 82.3015Z" fill="white"/>
</svg>
